<?xml version="1.0" encoding="utf-8"?>
<!-- Generator: Adobe Illustrator 27.7.0, SVG Export Plug-In . SVG Version: 6.00 Build 0)  -->
<svg version="1.1" id="exportSvg" xmlns="http://www.w3.org/2000/svg" xmlns:xlink="http://www.w3.org/1999/xlink" x="0px" y="0px"
	 viewBox="0 0 832 784" style="enable-background:new 0 0 832 784;" xml:space="preserve">
<style type="text/css">
	.st0{fill:#FFFFFF;}
	.st1{font-family:'Arial-BoldMT';}
	.st2{font-size:22px;}
	.st3{fill:none;}
	.st4{fill:#0079FF;}
	.st5{fill:#C71E1D;}
	.st6{fill:#FFFFFF;fill-opacity:0.75;}
	.st7{fill:none;stroke:#333333;stroke-width:2;}
	.st8{fill:#333333;}
	.st9{font-family:'ArialMT';}
	.st10{font-size:10px;}
	.st11{clip-path:url(#SVGID_00000088115410553127628530000002777218132952561052_);stroke:#000000;}
	.st12{clip-path:url(#SVGID_00000088115410553127628530000002777218132952561052_);enable-background:new    ;}
	.st13{font-size:12px;}
	.st14{fill:#FFFFFF;fill-opacity:0.73;}
	.st15{font-size:11px;}
	.st16{fill:#181818;}
	.st17{fill:#888888;}
</style>
<rect class="st0" width="832" height="784"/>
<g>
	<g id="__svelte-dw-svg">
		<text transform="matrix(1 0 0 1 0 22)" class="st1 st2">Subway Surfers Documented Cases</text>
		<rect x="-0.5" y="49.2" class="st3" width="832" height="676"/>
		
			<image style="overflow:visible;enable-background:new    ;" width="2600" height="2112" id="image" xlink:href="32A4B7E57B8890E2.png"  transform="matrix(0.32 0 0 0.32 -0.54 49.3)">
		</image>
		<path class="st4" d="M368.5,624.6l10,17.3h-20L368.5,624.6z"/>
		<path class="st5" d="M462.5,246.2c-5.5,0-10,4.5-10,10c0,5.5,4.5,10,10,10c5.5,0,10-4.5,10-10C472.5,250.7,468,246.2,462.5,246.2z
			 M462.5,248c4.6,0,8.2,3.7,8.2,8.2s-3.7,8.2-8.2,8.2s-8.2-3.7-8.2-8.2S457.9,248,462.5,248z M468.5,256.2c0,3.3-2.7,6-6,6
			c-3.3,0-6-2.7-6-6c0-3.3,2.7-6,6-6C465.8,250.2,468.5,252.9,468.5,256.2z"/>
		<path class="st4" d="M367.5,623.6l10,17.3h-20L367.5,623.6z"/>
		<path class="st5" d="M639.5,105.2c-5.5,0-10,4.5-10,10c0,5.5,4.5,10,10,10c5.5,0,10-4.5,10-10C649.5,109.7,645,105.2,639.5,105.2z
			 M639.5,107c4.6,0,8.2,3.7,8.2,8.2s-3.7,8.2-8.2,8.2s-8.2-3.7-8.2-8.2S634.9,107,639.5,107z M645.5,115.2c0,3.3-2.7,6-6,6
			c-3.3,0-6-2.7-6-6s2.7-6,6-6C642.8,109.2,645.5,111.9,645.5,115.2z"/>
		<path class="st5" d="M375.5,550.2c-5.5,0-10,4.5-10,10c0,5.5,4.5,10,10,10c5.5,0,10-4.5,10-10C385.5,554.7,381,550.2,375.5,550.2z
			 M375.5,552c4.6,0,8.2,3.7,8.2,8.2c0,4.6-3.7,8.2-8.2,8.2s-8.2-3.7-8.2-8.2C367.2,555.7,370.9,552,375.5,552z M381.5,560.2
			c0,3.3-2.7,6-6,6c-3.3,0-6-2.7-6-6c0-3.3,2.7-6,6-6C378.8,554.2,381.5,556.9,381.5,560.2z"/>
		<path class="st5" d="M368.5,623.2c-5.5,0-10,4.5-10,10c0,5.5,4.5,10,10,10c5.5,0,10-4.5,10-10C378.5,627.7,374,623.2,368.5,623.2z
			 M368.5,625c4.6,0,8.2,3.7,8.2,8.2c0,4.6-3.7,8.2-8.2,8.2s-8.2-3.7-8.2-8.2C360.2,628.7,363.9,625,368.5,625z M374.5,633.2
			c0,3.3-2.7,6-6,6c-3.3,0-6-2.7-6-6c0-3.3,2.7-6,6-6C371.8,627.2,374.5,629.9,374.5,633.2z"/>
		<path class="st5" d="M339.5,421.2c-5.5,0-10,4.5-10,10s4.5,10,10,10c5.5,0,10-4.5,10-10S345,421.2,339.5,421.2z M339.5,423
			c4.6,0,8.2,3.7,8.2,8.2s-3.7,8.2-8.2,8.2s-8.2-3.7-8.2-8.2S334.9,423,339.5,423z M345.5,431.2c0,3.3-2.7,6-6,6c-3.3,0-6-2.7-6-6
			c0-3.3,2.7-6,6-6C342.8,425.2,345.5,427.9,345.5,431.2z"/>
		<path class="st5" d="M590.5,659.2c-5.5,0-10,4.5-10,10c0,5.5,4.5,10,10,10c5.5,0,10-4.5,10-10C600.5,663.7,596,659.2,590.5,659.2z
			 M590.5,661c4.6,0,8.2,3.7,8.2,8.2c0,4.6-3.7,8.2-8.2,8.2s-8.2-3.7-8.2-8.2C582.2,664.7,585.9,661,590.5,661z M596.5,669.2
			c0,3.3-2.7,6-6,6c-3.3,0-6-2.7-6-6c0-3.3,2.7-6,6-6C593.8,663.2,596.5,665.9,596.5,669.2z"/>
		<path class="st4" d="M404.5,912.6l10,17.3h-20L404.5,912.6z"/>
		<path class="st5" d="M491.5,64.2c-5.5,0-10,4.5-10,10c0,5.5,4.5,10,10,10c5.5,0,10-4.5,10-10C501.5,68.7,497,64.2,491.5,64.2z
			 M491.5,66c4.6,0,8.2,3.7,8.2,8.2s-3.7,8.2-8.2,8.2s-8.2-3.7-8.2-8.2S486.9,66,491.5,66z M497.5,74.2c0,3.3-2.7,6-6,6
			c-3.3,0-6-2.7-6-6s2.7-6,6-6C494.8,68.2,497.5,70.9,497.5,74.2z"/>
		<path class="st5" d="M489.5,360.2c-5.5,0-10,4.5-10,10s4.5,10,10,10c5.5,0,10-4.5,10-10S495,360.2,489.5,360.2z M489.5,362
			c4.6,0,8.2,3.7,8.2,8.2s-3.7,8.2-8.2,8.2s-8.2-3.7-8.2-8.2S484.9,362,489.5,362z M495.5,370.2c0,3.3-2.7,6-6,6c-3.3,0-6-2.7-6-6
			c0-3.3,2.7-6,6-6C492.8,364.2,495.5,366.9,495.5,370.2z"/>
		<path class="st5" d="M396.5,475.2c-5.5,0-10,4.5-10,10s4.5,10,10,10c5.5,0,10-4.5,10-10S402,475.2,396.5,475.2z M396.5,477
			c4.6,0,8.2,3.7,8.2,8.2s-3.7,8.2-8.2,8.2s-8.2-3.7-8.2-8.2S391.9,477,396.5,477z M402.5,485.2c0,3.3-2.7,6-6,6c-3.3,0-6-2.7-6-6
			c0-3.3,2.7-6,6-6C399.8,479.2,402.5,481.9,402.5,485.2z"/>
		<path class="st4" d="M698.5,357.6l10,17.3h-20L698.5,357.6z"/>
		<path class="st4" d="M609.5,373.6l10,17.3h-20L609.5,373.6z"/>
		<path class="st5" d="M392.5,473.2c-5.5,0-10,4.5-10,10s4.5,10,10,10c5.5,0,10-4.5,10-10S398,473.2,392.5,473.2z M392.5,475
			c4.6,0,8.2,3.7,8.2,8.2s-3.7,8.2-8.2,8.2s-8.2-3.7-8.2-8.2S387.9,475,392.5,475z M398.5,483.2c0,3.3-2.7,6-6,6c-3.3,0-6-2.7-6-6
			c0-3.3,2.7-6,6-6C395.8,477.2,398.5,479.9,398.5,483.2z"/>
		<path class="st5" d="M401.5,477.2c-5.5,0-10,4.5-10,10s4.5,10,10,10c5.5,0,10-4.5,10-10S407,477.2,401.5,477.2z M401.5,479
			c4.6,0,8.2,3.7,8.2,8.2s-3.7,8.2-8.2,8.2s-8.2-3.7-8.2-8.2S396.9,479,401.5,479z M407.5,487.2c0,3.3-2.7,6-6,6c-3.3,0-6-2.7-6-6
			c0-3.3,2.7-6,6-6C404.8,481.2,407.5,483.9,407.5,487.2z"/>
		<path class="st5" d="M651.5,64.2c-5.5,0-10,4.5-10,10c0,5.5,4.5,10,10,10c5.5,0,10-4.5,10-10C661.5,68.7,657,64.2,651.5,64.2z
			 M651.5,66c4.6,0,8.2,3.7,8.2,8.2s-3.7,8.2-8.2,8.2s-8.2-3.7-8.2-8.2S646.9,66,651.5,66z M657.5,74.2c0,3.3-2.7,6-6,6
			c-3.3,0-6-2.7-6-6s2.7-6,6-6C654.8,68.2,657.5,70.9,657.5,74.2z"/>
		<path class="st5" d="M-81.5,1039.2c-5.5,0-10,4.5-10,10s4.5,10,10,10c5.5,0,10-4.5,10-10S-76,1039.2-81.5,1039.2z M-81.5,1041
			c4.6,0,8.2,3.7,8.2,8.2c0,4.6-3.7,8.2-8.2,8.2s-8.2-3.7-8.2-8.2C-89.8,1044.7-86.1,1041-81.5,1041z M-75.5,1049.2c0,3.3-2.7,6-6,6
			s-6-2.7-6-6s2.7-6,6-6S-75.5,1045.9-75.5,1049.2z"/>
		<path class="st5" d="M578.5,586.2c-5.5,0-10,4.5-10,10c0,5.5,4.5,10,10,10c5.5,0,10-4.5,10-10C588.5,590.7,584,586.2,578.5,586.2z
			 M578.5,588c4.6,0,8.2,3.7,8.2,8.2c0,4.6-3.7,8.2-8.2,8.2s-8.2-3.7-8.2-8.2C570.2,591.7,573.9,588,578.5,588z M584.5,596.2
			c0,3.3-2.7,6-6,6c-3.3,0-6-2.7-6-6c0-3.3,2.7-6,6-6C581.8,590.2,584.5,592.9,584.5,596.2z"/>
		<path class="st5" d="M511.5,379.2c-5.5,0-10,4.5-10,10s4.5,10,10,10s10-4.5,10-10S517,379.2,511.5,379.2z M511.5,381
			c4.6,0,8.2,3.7,8.2,8.2s-3.7,8.2-8.2,8.2c-4.6,0-8.2-3.7-8.2-8.2S506.9,381,511.5,381z M517.5,389.2c0,3.3-2.7,6-6,6s-6-2.7-6-6
			c0-3.3,2.7-6,6-6S517.5,385.9,517.5,389.2z"/>
		<rect x="9.5" y="700.2" class="st6" width="47.2" height="14"/>
		<path class="st7" d="M9.5,715.2h47.2"/>
		<text transform="matrix(1 0 0 1 14.46 711.22)" class="st8 st9 st10">1 mile</text>
		<g>
			<defs>
				<rect id="SVGID_1_" x="66.6" y="688.4" width="8.6" height="28.8"/>
			</defs>
			<clipPath id="SVGID_00000111881496082367450760000013582151840068017559_">
				<use xlink:href="#SVGID_1_"  style="overflow:visible;"/>
			</clipPath>
			<path style="clip-path:url(#SVGID_00000111881496082367450760000013582151840068017559_);stroke:#000000;" d="M70.9,705.4
				L70.9,705.4l3.2,11.8l-3.2-2l-3.2,2C67.7,717.2,70.9,705.4,70.9,705.4z"/>
			<g style="clip-path:url(#SVGID_00000111881496082367450760000013582151840068017559_);enable-background:new    ;">
				<text transform="matrix(1 0 0 1 66.5645 700.2231)" class="st9 st13">N</text>
			</g>
		</g>
		<rect x="674.5" y="711.2" class="st14" width="157" height="14"/>
		<text transform="matrix(1 0 0 1 678.46 723.22)" class="st9 st15">©</text>
		<text transform="matrix(1 0 0 1 689.2993 723.22)" class="st9 st15">OpenStreetMap</text>
		<text transform="matrix(1 0 0 1 769.689 723.22)" class="st9 st15">contributors</text>
		<path class="st5" d="M16,741.7c-5.5,0-10,4.5-10,10c0,5.5,4.5,10,10,10s10-4.5,10-10C26,746.2,21.5,741.7,16,741.7z M16,743.5
			c4.6,0,8.2,3.7,8.2,8.2c0,4.6-3.7,8.2-8.2,8.2s-8.2-3.7-8.2-8.2C7.7,747.2,11.4,743.5,16,743.5z M22,751.7c0,3.3-2.7,6-6,6
			s-6-2.7-6-6c0-3.3,2.7-6,6-6S22,748.4,22,751.7z"/>
		<text transform="matrix(1 0 0 1 37.46 755.22)" class="st16 st9 st13">Deaths</text>
		<path class="st4" d="M439.5,741.6l10,17.3h-20L439.5,741.6z"/>
		<text transform="matrix(1 0 0 1 460.96 755.22)" class="st16 st9 st13">Severe Injuries</text>
		<text transform="matrix(1 0 0 1 0 782)" class="st17 st9 st15">Created with</text>
		<text transform="matrix(1 0 0 1 64.4858 782)" class="st17 st9 st15">Datawrapper</text>
	</g>
</g>
</svg>
