<?xml version="1.0" encoding="utf-8"?>
<!-- Generator: Adobe Illustrator 27.7.0, SVG Export Plug-In . SVG Version: 6.00 Build 0)  -->
<svg version="1.1" id="Layer_1" xmlns="http://www.w3.org/2000/svg" xmlns:xlink="http://www.w3.org/1999/xlink" x="0px" y="0px"
	 viewBox="0 0 887 1080" style="enable-background:new 0 0 887 1080;" xml:space="preserve">
<style type="text/css">
	.st0{opacity:0.54;fill:#999999;enable-background:new    ;}
	.st1{display:none;fill:#C71E1D;}
	.st2{fill:#FFFFFF;}
	.st3{font-family:'Helvetica-Bold';}
	.st4{font-size:18px;}
	.st5{fill:none;}
	.st6{fill:#0079FF;}
	.st7{fill:#C71E1D;}
	.st8{opacity:0.97;fill:#C71E1D;enable-background:new    ;}
</style>
<g id="Layer_1_00000153664487545137057620000018184317353996814490_">
	<g id="xOlSDX_00000183230173383998436060000015458355190163177382_">
		
			<image style="overflow:visible;enable-background:new    ;" width="1282" height="1560" id="xOlSDX_00000058552762198962589970000001304708426156640398_" xlink:href="25DE93E15812F055.jpeg"  transform="matrix(0.6917 0 0 0.6917 4.940000e-02 0.4966)">
		</image>
	</g>
	<rect id="grey" class="st0" width="887" height="1080"/>
	<circle class="st1" cx="422.6" cy="806.6" r="6"/>
	<circle class="st1" cx="408.6" cy="809.6" r="6"/>
	<circle class="st1" cx="344.6" cy="702.6" r="6"/>
	<circle class="st1" cx="344.6" cy="702.6" r="6"/>
	<circle class="st1" cx="344.6" cy="702.6" r="6"/>
	<circle class="st1" cx="350.6" cy="736.6" r="10"/>
	<rect x="632" y="94" class="st2" width="215" height="108"/>
	<text transform="matrix(1.1061 0 0 1 699.8506 150.1045)" class="st3 st4">Death</text>
	<rect x="633" y="96" width="46" height="25"/>
	<g>
		<text transform="matrix(1.1061 0 0 1 635.2305 113.9199)" class="st2 st3 st4">Key:</text>
	</g>
	<text transform="matrix(1.1061 0 0 1 697.8916 181.3926)" class="st3 st4">Severe Injury</text>
	<polygon class="st5" points="731.7,147.8 744.6,147.8 744.6,147.8 	"/>
	<path id="KEEP_00000078733215669112722550000004117371210740982949_" class="st6" d="M667.9,163.4l11.9,20.6H656L667.9,163.4z"/>
	<path id="KEEP" class="st7" d="M668.2,131c-6.5,0-11.8,5.1-11.8,11.4s5.3,11.4,11.8,11.4s11.8-5.1,11.8-11.4S674.7,131,668.2,131z
		 M668.2,133c5.4,0,9.7,4.2,9.7,9.4s-4.3,9.4-9.7,9.4s-9.7-4.2-9.7-9.4S662.8,133,668.2,133z M675.3,142.4c0,3.8-3.2,6.9-7.2,6.9
		s-7.2-3.1-7.2-6.9s3.2-6.9,7.2-6.9C672.1,135.5,675.3,138.6,675.3,142.4z"/>
</g>
<g id="interactions:svg">
	<path id="Hide19" class="st7" d="M362.6,480.6c-8,0-14.5,6.3-14.5,14s6.5,14,14.5,14s14.5-6.3,14.5-14S370.6,480.6,362.6,480.6z
		 M362.6,483.1c6.6,0,11.9,5.1,11.9,11.5s-5.3,11.5-11.9,11.5s-11.9-5.1-11.9-11.5S356,483.1,362.6,483.1z M371.3,494.6
		c0,4.7-3.9,8.5-8.8,8.5s-8.8-3.8-8.8-8.5s3.9-8.5,8.8-8.5C367.4,486.1,371.3,489.9,371.3,494.6z"/>
	<path id="Hide18" class="st7" d="M587.9,615.2c-8,0-14.5,6.3-14.5,14s6.5,14,14.5,14s14.5-6.3,14.5-14S595.9,615.2,587.9,615.2z
		 M587.9,617.7c6.6,0,11.9,5.1,11.9,11.5c0,6.4-5.3,11.5-11.9,11.5s-11.9-5.1-11.9-11.5C576,622.8,581.3,617.7,587.9,617.7z
		 M596.7,629.2c0,4.7-3.9,8.5-8.8,8.5s-8.8-3.8-8.8-8.5c0-4.7,3.9-8.5,8.8-8.5S596.7,624.5,596.7,629.2z"/>
	<path id="Hide17" class="st8" d="M99.5,981.2c-8,0-14.5,6.5-14.5,14.4c0,8,6.5,14.4,14.5,14.4s14.5-6.5,14.5-14.4
		C114,987.6,107.5,981.2,99.5,981.2z M99.5,983.7c6.6,0,11.9,5.3,11.9,11.8s-5.3,11.8-11.9,11.8s-11.9-5.3-11.9-11.8
		S92.8,983.7,99.5,983.7z M108.2,995.6c0,4.8-3.9,8.7-8.8,8.7s-8.8-3.9-8.8-8.7c0-4.8,3.9-8.7,8.8-8.7S108.2,990.8,108.2,995.6z"/>
	<path id="Hide16" class="st7" d="M314.9,164.4c-8,0-14.5,6.3-14.5,14s6.5,14,14.5,14s14.5-6.3,14.5-14S323,164.4,314.9,164.4z
		 M314.9,166.9c6.6,0,11.9,5.1,11.9,11.5c0,6.4-5.3,11.5-11.9,11.5s-11.9-5.1-11.9-11.5S308.3,166.9,314.9,166.9z M323.7,178.4
		c0,4.7-3.9,8.5-8.8,8.5s-8.8-3.8-8.8-8.5s3.9-8.5,8.8-8.5C319.8,170,323.7,173.8,323.7,178.4z"/>
	<path id="Hide15" class="st7" d="M333.8,489.3c-8,0-14.5,6.3-14.5,14s6.5,14,14.5,14s14.5-6.3,14.5-14S341.8,489.3,333.8,489.3z
		 M333.8,491.8c6.6,0,11.9,5.1,11.9,11.5s-5.3,11.5-11.9,11.5s-11.9-5.1-11.9-11.5S327.2,491.8,333.8,491.8z M342.6,503.3
		c0,4.7-3.9,8.5-8.8,8.5s-8.8-3.8-8.8-8.5c0-4.7,3.9-8.5,8.8-8.5S342.6,498.6,342.6,503.3z"/>
	<path id="Hide14" class="st7" d="M82.5,235.7c-8,0-14.5,6.3-14.5,14c0,7.7,6.5,14,14.5,14s14.5-6.3,14.5-14S90.5,235.7,82.5,235.7z
		 M82.5,238.2c6.6,0,11.9,5.1,11.9,11.5s-5.3,11.5-11.9,11.5s-11.9-5.1-11.9-11.5S75.8,238.2,82.5,238.2z M91.2,249.7
		c0,4.7-3.9,8.5-8.8,8.5s-8.8-3.8-8.8-8.5s3.9-8.5,8.8-8.5C87.3,241.2,91.2,245,91.2,249.7z"/>
	<path id="Hide13" class="st7" d="M663.5,682.7c-8,0-14.5,6.3-14.5,14s6.5,14,14.5,14s14.5-6.3,14.5-14
		C678,689,671.5,682.7,663.5,682.7z M663.5,685.2c6.6,0,11.9,5.1,11.9,11.5c0,6.4-5.3,11.5-11.9,11.5s-11.9-5.1-11.9-11.5
		C651.5,690.3,656.8,685.2,663.5,685.2z M672.2,696.7c0,4.7-3.9,8.5-8.8,8.5s-8.8-3.8-8.8-8.5s3.9-8.5,8.8-8.5
		C668.3,688.2,672.2,692,672.2,696.7z"/>
	<path id="Hide12" class="st7" d="M182.6,629.2c-8,0-14.5,6.3-14.5,14s6.5,14,14.5,14s14.5-6.3,14.5-14
		C197.1,635.4,190.6,629.2,182.6,629.2z M182.6,631.7c6.6,0,11.9,5.1,11.9,11.5c0,6.4-5.3,11.5-11.9,11.5s-11.9-5.1-11.9-11.5
		C170.7,636.8,176,631.7,182.6,631.7z M191.3,643.2c0,4.7-3.9,8.5-8.8,8.5s-8.8-3.8-8.8-8.5c0-4.7,3.9-8.5,8.8-8.5
		C187.4,634.7,191.3,638.5,191.3,643.2z"/>
	<path id="Hide11" class="st7" d="M326.6,210.2c-8,0-14.5,6.3-14.5,14s6.5,14,14.5,14s14.5-6.3,14.5-14
		C341.1,216.4,334.6,210.2,326.6,210.2z M326.6,212.7c6.6,0,11.9,5.1,11.9,11.5c0,6.4-5.3,11.5-11.9,11.5s-11.9-5.1-11.9-11.5
		C314.7,217.8,320,212.7,326.6,212.7z M335.3,224.2c0,4.7-3.9,8.5-8.8,8.5s-8.8-3.8-8.8-8.5c0-4.7,3.9-8.5,8.8-8.5
		S335.3,219.5,335.3,224.2z"/>
	<path id="Hide10" class="st7" d="M224.3,386c-8,0-14.5,6.3-14.5,14s6.5,14,14.5,14s14.5-6.3,14.5-14S232.3,386,224.3,386z
		 M224.3,388.5c6.6,0,11.9,5.1,11.9,11.5s-5.3,11.5-11.9,11.5s-11.9-5.1-11.9-11.5S217.6,388.5,224.3,388.5z M233,400
		c0,4.7-3.9,8.5-8.8,8.5s-8.8-3.8-8.8-8.5c0-4.7,3.9-8.5,8.8-8.5S233,395.4,233,400z"/>
	<path id="Hide9" class="st6" d="M460,440.4l14.8,25.6h-29.6L460,440.4z"/>
	<path id="Hide8" class="st6" d="M515,370.4l14.8,25.6h-29.6L515,370.4z"/>
	<path id="Hide7" class="st6" d="M602.7,961.4l14.8,25.6h-29.6L602.7,961.4z"/>
	<path id="Hide6" class="st7" d="M276.8,654.3c-8,0-14.5,6.3-14.5,14s6.5,14,14.5,14s14.5-6.3,14.5-14S284.8,654.3,276.8,654.3z
		 M276.8,656.8c6.6,0,11.9,5.1,11.9,11.5c0,6.4-5.3,11.5-11.9,11.5s-11.9-5.1-11.9-11.5C264.9,661.9,270.2,656.8,276.8,656.8z
		 M285.6,668.3c0,4.7-3.9,8.5-8.8,8.5s-8.8-3.8-8.8-8.5s3.9-8.5,8.8-8.5S285.6,663.6,285.6,668.3z"/>
	<path id="Hide5" class="st7" d="M291.2,651.4c-8,0-14.5,6.3-14.5,14s6.5,14,14.5,14s14.5-6.3,14.5-14
		C305.8,657.7,299.2,651.4,291.2,651.4z M291.2,653.9c6.6,0,11.9,5.1,11.9,11.5c0,6.4-5.3,11.5-11.9,11.5s-11.9-5.1-11.9-11.5
		S284.6,653.9,291.2,653.9z M300,665.4c0,4.7-3.9,8.5-8.8,8.5s-8.8-3.8-8.8-8.5s3.9-8.5,8.8-8.5S300,660.7,300,665.4z"/>
	<path id="Hide4" class="st7" d="M282.8,640.3c-8,0-14.5,6.3-14.5,14s6.5,14,14.5,14s14.5-6.3,14.5-14S290.8,640.3,282.8,640.3z
		 M282.8,642.8c6.6,0,11.9,5.1,11.9,11.5c0,6.4-5.3,11.5-11.9,11.5s-11.9-5.1-11.9-11.5C270.9,647.9,276.2,642.8,282.8,642.8z
		 M291.6,654.3c0,4.7-3.9,8.5-8.8,8.5s-8.8-3.8-8.8-8.5s3.9-8.5,8.8-8.5S291.6,649.6,291.6,654.3z"/>
	<path id="Hide3" class="st7" d="M419.6,790.6c-8,0-14.5,6.3-14.5,14s6.5,14,14.5,14s14.5-6.3,14.5-14
		C434.1,796.8,427.6,790.6,419.6,790.6z M419.6,793.1c6.6,0,11.9,5.1,11.9,11.5c0,6.4-5.3,11.5-11.9,11.5s-11.9-5.1-11.9-11.5
		C407.7,798.2,413,793.1,419.6,793.1z M428.3,804.6c0,4.7-3.9,8.5-8.8,8.5s-8.8-3.8-8.8-8.5c0-4.7,3.9-8.5,8.8-8.5
		S428.3,799.9,428.3,804.6z"/>
	<path id="Hide2" class="st6" d="M411,783.4l14.8,25.6h-29.6L411,783.4z"/>
	<path id="Hide1" class="st6" d="M413.6,796.4l14.8,25.6h-29.6L413.6,796.4z"/>
	<path id="_x34_th_x26_9th1" class="st7" d="M419.6,790.6c-8,0-14.5,6.3-14.5,14s6.5,14,14.5,14s14.5-6.3,14.5-14
		S427.6,790.6,419.6,790.6z M419.6,793.1c6.6,0,11.9,5.1,11.9,11.5s-5.3,11.5-11.9,11.5s-11.9-5.1-11.9-11.5S413,793.1,419.6,793.1z
		 M428.3,804.6c0,4.7-3.9,8.5-8.8,8.5s-8.8-3.8-8.8-8.5s3.9-8.5,8.8-8.5C424.4,796.1,428.3,799.9,428.3,804.6z"/>
	<path id="_x34_th_x26_9th2" class="st6" d="M413.6,795.4l14.8,25.6h-29.6L413.6,795.4z"/>
	<path id="_x34_th_x26_9th3" class="st6" d="M410.6,783.4l14.8,25.6h-29.6L410.6,783.4z"/>
	<path id="will1" class="st7" d="M282.8,640.3c-8,0-14.5,6.3-14.5,14s6.5,14,14.5,14s14.5-6.3,14.5-14S290.8,640.3,282.8,640.3z
		 M282.8,642.8c6.6,0,11.9,5.1,11.9,11.5c0,6.4-5.3,11.5-11.9,11.5s-11.9-5.1-11.9-11.5C270.9,647.9,276.2,642.8,282.8,642.8z
		 M291.6,654.3c0,4.7-3.9,8.5-8.8,8.5s-8.8-3.8-8.8-8.5c0-4.7,3.9-8.5,8.8-8.5S291.6,649.6,291.6,654.3z"/>
	<path id="will2" class="st7" d="M291.2,651.4c-8,0-14.5,6.3-14.5,14s6.5,14,14.5,14s14.5-6.3,14.5-14
		C305.8,657.7,299.2,651.4,291.2,651.4z M291.2,653.9c6.6,0,11.9,5.1,11.9,11.5c0,6.4-5.3,11.5-11.9,11.5s-11.9-5.1-11.9-11.5
		S284.6,653.9,291.2,653.9z M300,665.4c0,4.7-3.9,8.5-8.8,8.5s-8.8-3.8-8.8-8.5c0-4.7,3.9-8.5,8.8-8.5S300,660.7,300,665.4z"/>
	<path id="will3" class="st7" d="M276.8,654.3c-8,0-14.5,6.3-14.5,14s6.5,14,14.5,14s14.5-6.3,14.5-14S284.8,654.3,276.8,654.3z
		 M276.8,656.8c6.6,0,11.9,5.1,11.9,11.5c0,6.4-5.3,11.5-11.9,11.5s-11.9-5.1-11.9-11.5C264.9,661.9,270.2,656.8,276.8,656.8z
		 M285.6,668.3c0,4.7-3.9,8.5-8.8,8.5s-8.8-3.8-8.8-8.5c0-4.7,3.9-8.5,8.8-8.5S285.6,663.6,285.6,668.3z"/>
</g>
<g id="ai2html-settings">
	<rect x="-450" class="st5" width="400" height="456"/>
	<text transform="matrix(1 0 0 1 -450 10.6499)" style="font-family:'ArialMT'; font-size:15px;">ai2html-settings</text>
	<text transform="matrix(1 0 0 1 -450 29.6499)" style="font-family:'ArialMT'; font-size:15px;">settings_version: 0.119.1</text>
	<text transform="matrix(1 0 0 1 -450 48.6499)" style="font-family:'ArialMT'; font-size:15px;">image_format: auto</text>
	<text transform="matrix(1 0 0 1 -450 67.6499)" style="font-family:'ArialMT'; font-size:15px;">inline_svg:true</text>
	<text transform="matrix(1 0 0 1 -450 86.6499)" style="font-family:'ArialMT'; font-size:15px;">responsiveness: fixed</text>
	<text transform="matrix(1 0 0 1 -450 105.6499)" style="font-family:'ArialMT'; font-size:15px;">include_resizer_script: false</text>
	<text transform="matrix(1 0 0 1 -450 124.6499)" style="font-family:'ArialMT'; font-size:15px;">use_lazy_loader: false</text>
	<text transform="matrix(1 0 0 1 -450 143.6499)" style="font-family:'ArialMT'; font-size:15px;">output: one-file</text>
	<text transform="matrix(1 0 0 1 -450 162.6499)" style="font-family:'ArialMT'; font-size:15px;">html_output_path: ai2html-output/</text>
	<text transform="matrix(1 0 0 1 -450 181.6499)" style="font-family:'ArialMT'; font-size:15px;">image_output_path: ai2html-output/</text>
	<text transform="matrix(1 0 0 1 -450 200.6499)" style="font-family:'ArialMT'; font-size:15px;">image_source_path: </text>
	<text transform="matrix(1 0 0 1 -450 219.6499)" style="font-family:'ArialMT'; font-size:15px;">local_preview_template: </text>
	<text transform="matrix(1 0 0 1 -450 238.6499)" style="font-family:'ArialMT'; font-size:15px;">png_number_of_colors: 128</text>
	<text transform="matrix(1 0 0 1 -450 257.6499)" style="font-family:'ArialMT'; font-size:15px;">jpg_quality: 60</text>
	<text transform="matrix(1 0 0 1 -450 276.6499)" style="font-family:'ArialMT'; font-size:15px;">headline: </text>
	<text transform="matrix(1 0 0 1 -450 295.6499)" style="font-family:'ArialMT'; font-size:15px;">leadin: </text>
	<text transform="matrix(1 0 0 1 -450 314.6499)" style="font-family:'ArialMT'; font-size:15px;">notes: </text>
	<text transform="matrix(1 0 0 1 -450 333.6499)" style="font-family:'ArialMT'; font-size:15px;">sources: </text>
	<text transform="matrix(1 0 0 1 -450 352.6499)" style="font-family:'ArialMT'; font-size:15px;">credit: </text>
</g>
<g id="ArtboardContent">
</g>
</svg>
