<?xml version="1.0" encoding="utf-8"?>
<!-- Generator: Adobe Illustrator 27.7.0, SVG Export Plug-In . SVG Version: 6.00 Build 0)  -->
<svg version="1.2" baseProfile="tiny" xmlns="http://www.w3.org/2000/svg" xmlns:xlink="http://www.w3.org/1999/xlink" x="0px"
	 y="0px" viewBox="0 0 796 575" overflow="visible" xml:space="preserve">
<g id="fl-legend-discrete-color-0-svg-screenshot-container">
	<rect x="-43" y="-37" fill="#231F20" stroke="#FFFFFF" width="885" height="656"/>
	<rect x="28.212" y="42.5" display="none" fill="#FFFFFF" width="757.288" height="479.092"/>
	<rect x="28.212" y="42.5" display="none" fill="#FFFFFF" width="757.288" height="479.092"/>
	<polygon display="none" fill="#FFFFFF" fill-opacity="0" points="28.212,42.5 28.212,42.5 28.212,42.5 	"/>
	<rect x="28.212" y="42.5" display="none" fill="#FFFFFF" stroke="#FF0000" width="757.288" height="479.092"/>
	<rect x="28.212" y="50.6" display="none" fill="#FFFFFF" width="745.833" height="470.992"/>
	<rect x="26.712" y="49.1" display="none" fill="#FFFFFF" width="748.833" height="473.992"/>
	<line display="none" fill="#FFFFFF" stroke="#EEEEEE" stroke-width="1.5" x1="28.212" y1="521.592" x2="774.045" y2="521.592"/>
	<image width="747" height="2" xlink:href="E67BC98BA164EA00.png"  transform="matrix(1 0 0 1 28 332)">
	</image>
	<image width="747" height="2" xlink:href="E67BC98BA164EA03.png"  transform="matrix(1 0 0 1 28 238)">
	</image>
	<image width="747" height="2" xlink:href="E67BC98BA164EA06.png"  transform="matrix(1 0 0 1 28 144)">
	</image>
	
		<line fill="#FFFFFF" stroke="#EEEEEE" stroke-width="1.5" stroke-linecap="square" x1="28.212" y1="521.592" x2="774.045" y2="521.592"/>
	<line display="none" fill="#FFFFFF" stroke="#EEEEEE" stroke-width="1.5" x1="740.143" y1="521.592" x2="740.143" y2="528.592"/>
	
		<text transform="matrix(0.7071 -0.7071 0.7071 0.7071 724.6545 560.6481)" fill="#FFFFFF" font-family="'ArialMT'" font-size="14px">2023</text>
	<line display="none" fill="#FFFFFF" stroke="#EEEEEE" stroke-width="1.5" x1="672.34" y1="521.592" x2="672.34" y2="528.592"/>
	
		<text transform="matrix(0.7071 -0.7071 0.7071 0.7071 656.8515 560.6481)" fill="#FFFFFF" font-family="'ArialMT'" font-size="14px">2022</text>
	<line display="none" fill="#FFFFFF" stroke="#EEEEEE" stroke-width="1.5" x1="604.537" y1="521.592" x2="604.537" y2="528.592"/>
	
		<text transform="matrix(0.7071 -0.7071 0.7071 0.7071 589.0485 560.6481)" fill="#FFFFFF" font-family="'ArialMT'" font-size="14px">2021</text>
	<line display="none" fill="#FFFFFF" stroke="#EEEEEE" stroke-width="1.5" x1="536.734" y1="521.592" x2="536.734" y2="528.592"/>
	
		<text transform="matrix(0.7071 -0.7071 0.7071 0.7071 521.2455 560.6481)" fill="#FFFFFF" font-family="'ArialMT'" font-size="14px">2020</text>
	<line display="none" fill="#FFFFFF" stroke="#EEEEEE" stroke-width="1.5" x1="468.931" y1="521.592" x2="468.931" y2="528.592"/>
	
		<text transform="matrix(0.7071 -0.7071 0.7071 0.7071 453.4426 560.6481)" fill="#FFFFFF" font-family="'ArialMT'" font-size="14px">2019</text>
	<line display="none" fill="#FFFFFF" stroke="#EEEEEE" stroke-width="1.5" x1="401.129" y1="521.592" x2="401.129" y2="528.592"/>
	
		<text transform="matrix(0.7071 -0.7071 0.7071 0.7071 385.6396 560.6481)" fill="#FFFFFF" font-family="'ArialMT'" font-size="14px">2018</text>
	<line display="none" fill="#FFFFFF" stroke="#EEEEEE" stroke-width="1.5" x1="333.326" y1="521.592" x2="333.326" y2="528.592"/>
	
		<text transform="matrix(0.7071 -0.7071 0.7071 0.7071 317.8366 560.6481)" fill="#FFFFFF" font-family="'ArialMT'" font-size="14px">2017</text>
	<line display="none" fill="#FFFFFF" stroke="#EEEEEE" stroke-width="1.5" x1="265.523" y1="521.592" x2="265.523" y2="528.592"/>
	
		<text transform="matrix(0.7071 -0.7071 0.7071 0.7071 250.0336 560.6481)" fill="#FFFFFF" font-family="'ArialMT'" font-size="14px">2016</text>
	<line display="none" fill="#FFFFFF" stroke="#EEEEEE" stroke-width="1.5" x1="197.72" y1="521.592" x2="197.72" y2="528.592"/>
	
		<text transform="matrix(0.7071 -0.7071 0.7071 0.7071 182.2306 560.6481)" fill="#FFFFFF" font-family="'ArialMT'" font-size="14px">2015</text>
	<line display="none" fill="#FFFFFF" stroke="#EEEEEE" stroke-width="1.5" x1="129.917" y1="521.592" x2="129.917" y2="528.592"/>
	
		<text transform="matrix(0.7071 -0.7071 0.7071 0.7071 114.4277 560.6481)" fill="#FFFFFF" font-family="'ArialMT'" font-size="14px">2014</text>
	<line display="none" fill="#FFFFFF" stroke="#EEEEEE" stroke-width="1.5" x1="62.114" y1="521.592" x2="62.114" y2="528.592"/>
	
		<text transform="matrix(0.7071 -0.7071 0.7071 0.7071 46.6247 560.6481)" fill="#FFFFFF" font-family="'ArialMT'" font-size="14px">2013</text>
	<line display="none" fill="#FFFFFF" stroke="#EEEEEE" stroke-width="1.5" x1="28.212" y1="521.592" x2="21.212" y2="521.592"/>
	<text transform="matrix(1 0 0 1 9.926 526.2119)" fill="#FFFFFF" font-family="'ArialMT'" font-size="14px">0</text>
	<line display="none" fill="#FFFFFF" stroke="#EEEEEE" stroke-width="1.5" x1="28.212" y1="50.6" x2="21.212" y2="50.6"/>
	<text transform="matrix(1 0 0 1 9.926 55.22)" fill="#FFFFFF" font-family="'ArialMT'" font-size="14px">5</text>
	<line display="none" fill="#FFFFFF" stroke="#EEEEEE" stroke-width="1.5" x1="28.212" y1="144.798" x2="21.212" y2="144.798"/>
	<text transform="matrix(1 0 0 1 9.926 149.4184)" fill="#FFFFFF" font-family="'ArialMT'" font-size="14px">4</text>
	<line display="none" fill="#FFFFFF" stroke="#EEEEEE" stroke-width="1.5" x1="28.212" y1="238.997" x2="21.212" y2="238.997"/>
	<text transform="matrix(1 0 0 1 9.926 243.6168)" fill="#FFFFFF" font-family="'ArialMT'" font-size="14px">3</text>
	<line display="none" fill="#FFFFFF" stroke="#EEEEEE" stroke-width="1.5" x1="28.212" y1="333.195" x2="21.212" y2="333.195"/>
	<text transform="matrix(1 0 0 1 9.926 337.8151)" fill="#FFFFFF" font-family="'ArialMT'" font-size="14px">2</text>
	<line display="none" fill="#FFFFFF" stroke="#EEEEEE" stroke-width="1.5" x1="28.212" y1="427.394" x2="21.212" y2="427.394"/>
	<text transform="matrix(1 0 0 1 9.926 432.0135)" fill="#FFFFFF" font-family="'ArialMT'" font-size="14px">1</text>
	<rect x="28.212" y="50.6" display="none" fill="#FFFFFF" width="745.833" height="470.992"/>
	<g id="areas" display="none">
	</g>
	<g id="lines" display="none">
	</g>
	<image width="727" height="473" xlink:href="E67BC98BA164EA18.png"  transform="matrix(1 0 0 1 46 50)">
	</image>
	<g id="lines-secondary" display="none">
	</g>
	<g id="data-points-secondary" display="none">
	</g>
	<g id="axes-highlights" display="none">
		<g display="inline">
			<g transform="translate(17.712158203125, 0)">
			</g>
		</g>
	</g>
	<g id="data-point-labels" display="none">
		<image display="inline" width="747" height="472" xlink:href="E67BC98BA164EA1E.png"  transform="matrix(1 0 0 1 28 50)">
		</image>
	</g>
	<g id="stack-labels" display="none">
	</g>
	<circle display="none" fill="#4328E7" cx="15.75" cy="17.75" r="5.25"/>
	<text transform="matrix(1.0428 0 0 1 356.0637 33.1182)" fill="#FFFFFF" font-family="'Helvetica-Bold'" font-size="23.5215px">Deaths</text>
</g>
<g id="interactions:svg">
	<line id="this" fill="#FFFFFF" stroke="#FFFFFF" stroke-width="1.5" x1="28.212" y1="427.394" x2="774.045" y2="427.394"/>
	<path id="_x32_023bar" fill="#E93B00" d="M714.717,521.592h50.852V50.6h-50.852V521.592z"/>
</g>
<g id="ai2html-settings">
	<rect x="-450" fill="none" width="400" height="456"/>
	<text transform="matrix(1 0 0 1 -450 10.6499)" font-family="'MyriadPro-Regular'" font-size="15px">a</text>
	<text transform="matrix(1 0 0 1 -442.77 10.6499)" font-family="'MyriadPro-Regular'" font-size="15px">i</text>
	<text transform="matrix(1 0 0 1 -439.2603 10.6499)" font-family="'MyriadPro-Regular'" font-size="15px">2</text>
	<text transform="matrix(1 0 0 1 -431.5654 10.6499)" font-family="'MyriadPro-Regular'" font-size="15px">h</text>
	<text transform="matrix(1 0 0 1 -423.3008 10.6499)" font-family="'MyriadPro-Regular'" font-size="15px">t</text>
	<text transform="matrix(1 0 0 1 -418.3359 10.6499)" font-family="'MyriadPro-Regular'" font-size="15px">m</text>
	<text transform="matrix(1 0 0 1 -405.8262 10.6499)" font-family="'MyriadPro-Regular'" font-size="15px">l</text>
	<text transform="matrix(1 0 0 1 -402.2861 10.6499)" font-family="'MyriadPro-Regular'" font-size="15px">-</text>
	<text transform="matrix(1 0 0 1 -397.6812 10.6499)" font-family="'MyriadPro-Regular'" font-size="15px">s</text>
	<text transform="matrix(1 0 0 1 -391.7412 10.6499)" font-family="'MyriadPro-Regular'" font-size="15px">e</text>
	<text transform="matrix(1 0 0 1 -384.2266 10.6499)" font-family="'MyriadPro-Regular'" font-size="15px">t</text>
	<text transform="matrix(1 0 0 1 -379.2617 10.6499)" font-family="'MyriadPro-Regular'" font-size="15px">t</text>
	<text transform="matrix(1 0 0 1 -374.2969 10.6499)" font-family="'MyriadPro-Regular'" font-size="15px">i</text>
	<text transform="matrix(1 0 0 1 -370.7871 10.6499)" font-family="'MyriadPro-Regular'" font-size="15px">n</text>
	<text transform="matrix(1 0 0 1 -362.4624 10.6499)" font-family="'MyriadPro-Regular'" font-size="15px">g</text>
	<text transform="matrix(1 0 0 1 -354.0776 10.6499)" font-family="'MyriadPro-Regular'" font-size="15px">s</text>
	<text transform="matrix(1 0 0 1 -450 29.6499)" font-family="'MyriadPro-Regular'" font-size="15px">s</text>
	<text transform="matrix(1 0 0 1 -444.0601 29.6499)" font-family="'MyriadPro-Regular'" font-size="15px">e</text>
	<text transform="matrix(1 0 0 1 -436.5454 29.6499)" font-family="'MyriadPro-Regular'" font-size="15px">t</text>
	<text transform="matrix(1 0 0 1 -431.5806 29.6499)" font-family="'MyriadPro-Regular'" font-size="15px">t</text>
	<text transform="matrix(1 0 0 1 -426.6157 29.6499)" font-family="'MyriadPro-Regular'" font-size="15px">i</text>
	<text transform="matrix(1 0 0 1 -423.106 29.6499)" font-family="'MyriadPro-Regular'" font-size="15px">n</text>
	<text transform="matrix(1 0 0 1 -414.7812 29.6499)" font-family="'MyriadPro-Regular'" font-size="15px">g</text>
	<text transform="matrix(1 0 0 1 -406.3965 29.6499)" font-family="'MyriadPro-Regular'" font-size="15px">s</text>
	<text transform="matrix(1 0 0 1 -400.4565 29.6499)" font-family="'MyriadPro-Regular'" font-size="15px">_</text>
	<text transform="matrix(1 0 0 1 -392.9565 29.6499)" font-family="'MyriadPro-Regular'" font-size="15px">v</text>
	<text transform="matrix(1 0 0 1 -385.8916 29.6499)" font-family="'MyriadPro-Regular'" font-size="15px">e</text>
	<text transform="matrix(1 0 0 1 -378.377 29.6499)" font-family="'MyriadPro-Regular'" font-size="15px">r</text>
	<text transform="matrix(1 0 0 1 -373.4722 29.6499)" font-family="'MyriadPro-Regular'" font-size="15px">s</text>
	<text transform="matrix(1 0 0 1 -367.5322 29.6499)" font-family="'MyriadPro-Regular'" font-size="15px">i</text>
	<text transform="matrix(1 0 0 1 -364.0225 29.6499)" font-family="'MyriadPro-Regular'" font-size="15px">o</text>
	<text transform="matrix(1 0 0 1 -355.7876 29.6499)" font-family="'MyriadPro-Regular'" font-size="15px">n</text>
	<text transform="matrix(1 0 0 1 -347.4629 29.6499)" font-family="'MyriadPro-Regular'" font-size="15px">:</text>
	<text transform="matrix(1 0 0 1 -344.3579 29.6499)" font-family="'MyriadPro-Regular'" font-size="15px"> </text>
	<text transform="matrix(1 0 0 1 -341.1782 29.6499)" font-family="'MyriadPro-Regular'" font-size="15px">0</text>
	<text transform="matrix(1 0 0 1 -333.4834 29.6499)" font-family="'MyriadPro-Regular'" font-size="15px">.</text>
	<text transform="matrix(1 0 0 1 -330.3784 29.6499)" font-family="'MyriadPro-Regular'" font-size="15px">1</text>
	<text transform="matrix(1 0 0 1 -322.6836 29.6499)" font-family="'MyriadPro-Regular'" font-size="15px">1</text>
	<text transform="matrix(1 0 0 1 -314.9888 29.6499)" font-family="'MyriadPro-Regular'" font-size="15px">9</text>
	<text transform="matrix(1 0 0 1 -307.2939 29.6499)" font-family="'MyriadPro-Regular'" font-size="15px">.</text>
	<text transform="matrix(1 0 0 1 -304.189 29.6499)" font-family="'MyriadPro-Regular'" font-size="15px">1</text>
	<text transform="matrix(1 0 0 1 -450 48.6499)" font-family="'MyriadPro-Regular'" font-size="15px">i</text>
	<text transform="matrix(1 0 0 1 -446.4902 48.6499)" font-family="'MyriadPro-Regular'" font-size="15px">m</text>
	<text transform="matrix(1 0 0 1 -433.9805 48.6499)" font-family="'MyriadPro-Regular'" font-size="15px">a</text>
	<text transform="matrix(1 0 0 1 -426.7505 48.6499)" font-family="'MyriadPro-Regular'" font-size="15px">g</text>
	<text transform="matrix(1 0 0 1 -418.3657 48.6499)" font-family="'MyriadPro-Regular'" font-size="15px">e</text>
	<text transform="matrix(1 0 0 1 -410.8511 48.6499)" font-family="'MyriadPro-Regular'" font-size="15px">_</text>
	<text transform="matrix(1 0 0 1 -403.3511 48.6499)" font-family="'MyriadPro-Regular'" font-size="15px">f</text>
	<text transform="matrix(1 0 0 1 -399.166 48.6499)" font-family="'MyriadPro-Regular'" font-size="15px">o</text>
	<text transform="matrix(1 0 0 1 -390.9312 48.6499)" font-family="'MyriadPro-Regular'" font-size="15px">r</text>
	<text transform="matrix(1 0 0 1 -385.9663 48.6499)" font-family="'MyriadPro-Regular'" font-size="15px">m</text>
	<text transform="matrix(1 0 0 1 -373.4565 48.6499)" font-family="'MyriadPro-Regular'" font-size="15px">a</text>
	<text transform="matrix(1 0 0 1 -366.2866 48.6499)" font-family="'MyriadPro-Regular'" font-size="15px">t</text>
	<text transform="matrix(1 0 0 1 -361.3218 48.6499)" font-family="'MyriadPro-Regular'" font-size="15px">:</text>
	<text transform="matrix(1 0 0 1 -358.2168 48.6499)" font-family="'MyriadPro-Regular'" font-size="15px"> </text>
	<text transform="matrix(1 0 0 1 -355.0371 48.6499)" font-family="'MyriadPro-Regular'" font-size="15px">a</text>
	<text transform="matrix(1 0 0 1 -347.8071 48.6499)" font-family="'MyriadPro-Regular'" font-size="15px">u</text>
	<text transform="matrix(1 0 0 1 -339.542 48.6499)" font-family="'MyriadPro-Regular'" font-size="15px">t</text>
	<text transform="matrix(1 0 0 1 -334.667 48.6499)" font-family="'MyriadPro-Regular'" font-size="15px">o</text>
	<text transform="matrix(1 0 0 1 -450 67.6499)" font-family="'MyriadPro-Regular'" font-size="15px">i</text>
	<text transform="matrix(1 0 0 1 -446.4902 67.6499)" font-family="'MyriadPro-Regular'" font-size="15px">n</text>
	<text transform="matrix(1 0 0 1 -438.1655 67.6499)" font-family="'MyriadPro-Regular'" font-size="15px">l</text>
	<text transform="matrix(1 0 0 1 -434.6255 67.6499)" font-family="'MyriadPro-Regular'" font-size="15px">i</text>
	<text transform="matrix(1 0 0 1 -431.1157 67.6499)" font-family="'MyriadPro-Regular'" font-size="15px">n</text>
	<text transform="matrix(1 0 0 1 -422.791 67.6499)" font-family="'MyriadPro-Regular'" font-size="15px">e</text>
	<text transform="matrix(1 0 0 1 -415.2764 67.6499)" font-family="'MyriadPro-Regular'" font-size="15px">_</text>
	<text transform="matrix(1 0 0 1 -407.7764 67.6499)" font-family="'MyriadPro-Regular'" font-size="15px">s</text>
	<text transform="matrix(1 0 0 1 -401.8364 67.6499)" font-family="'MyriadPro-Regular'" font-size="15px">v</text>
	<text transform="matrix(1 0 0 1 -394.7715 67.6499)" font-family="'MyriadPro-Regular'" font-size="15px">g</text>
	<text transform="matrix(1 0 0 1 -386.3867 67.6499)" font-family="'MyriadPro-Regular'" font-size="15px">:</text>
	<text transform="matrix(1 0 0 1 -383.2817 67.6499)" font-family="'MyriadPro-Regular'" font-size="15px"> </text>
	<text transform="matrix(1 0 0 1 -380.1021 67.6499)" font-family="'MyriadPro-Regular'" font-size="15px">t</text>
	<text transform="matrix(1 0 0 1 -375.1372 67.6499)" font-family="'MyriadPro-Regular'" font-size="15px">r</text>
	<text transform="matrix(1 0 0 1 -370.2324 67.6499)" font-family="'MyriadPro-Regular'" font-size="15px">u</text>
	<text transform="matrix(1 0 0 1 -361.9673 67.6499)" font-family="'MyriadPro-Regular'" font-size="15px">e</text>
	<text transform="matrix(1 0 0 1 -450 86.6499)" font-family="'MyriadPro-Regular'" font-size="15px">r</text>
	<text transform="matrix(1 0 0 1 -445.2451 86.6499)" font-family="'MyriadPro-Regular'" font-size="15px">e</text>
	<text transform="matrix(1 0 0 1 -437.7305 86.6499)" font-family="'MyriadPro-Regular'" font-size="15px">s</text>
	<text transform="matrix(1 0 0 1 -431.7905 86.6499)" font-family="'MyriadPro-Regular'" font-size="15px">p</text>
	<text transform="matrix(1 0 0 1 -423.2559 86.6499)" font-family="'MyriadPro-Regular'" font-size="15px">o</text>
	<text transform="matrix(1 0 0 1 -415.021 86.6499)" font-family="'MyriadPro-Regular'" font-size="15px">n</text>
	<text transform="matrix(1 0 0 1 -406.6963 86.6499)" font-family="'MyriadPro-Regular'" font-size="15px">s</text>
	<text transform="matrix(1 0 0 1 -400.7563 86.6499)" font-family="'MyriadPro-Regular'" font-size="15px">i</text>
	<text transform="matrix(1 0 0 1 -397.2466 86.6499)" font-family="'MyriadPro-Regular'" font-size="15px">v</text>
	<text transform="matrix(1 0 0 1 -390.1816 86.6499)" font-family="'MyriadPro-Regular'" font-size="15px">e</text>
	<text transform="matrix(1 0 0 1 -382.667 86.6499)" font-family="'MyriadPro-Regular'" font-size="15px">n</text>
	<text transform="matrix(1 0 0 1 -374.3423 86.6499)" font-family="'MyriadPro-Regular'" font-size="15px">e</text>
	<text transform="matrix(1 0 0 1 -366.8276 86.6499)" font-family="'MyriadPro-Regular'" font-size="15px">s</text>
	<text transform="matrix(1 0 0 1 -360.8877 86.6499)" font-family="'MyriadPro-Regular'" font-size="15px">s</text>
	<text transform="matrix(1 0 0 1 -354.9478 86.6499)" font-family="'MyriadPro-Regular'" font-size="15px">:</text>
	<text transform="matrix(1 0 0 1 -351.8428 86.6499)" font-family="'MyriadPro-Regular'" font-size="15px"> </text>
	<text transform="matrix(1 0 0 1 -348.6631 86.6499)" font-family="'MyriadPro-Regular'" font-size="15px">f</text>
	<text transform="matrix(1 0 0 1 -7792.9233 -7904)" font-family="'MyriadPro-Regular'" font-size="15px">i</text>
	<text transform="matrix(1 0 0 1 -340.8184 86.6499)" font-family="'MyriadPro-Regular'" font-size="15px">x</text>
	<text transform="matrix(1 0 0 1 -334.0986 86.6499)" font-family="'MyriadPro-Regular'" font-size="15px">e</text>
	<text transform="matrix(1 0 0 1 -326.584 86.6499)" font-family="'MyriadPro-Regular'" font-size="15px">d</text>
	<text transform="matrix(1 0 0 1 -450 105.6499)" font-family="'MyriadPro-Regular'" font-size="15px">i</text>
	<text transform="matrix(1 0 0 1 -446.4902 105.6499)" font-family="'MyriadPro-Regular'" font-size="15px">n</text>
	<text transform="matrix(1 0 0 1 -438.1655 105.6499)" font-family="'MyriadPro-Regular'" font-size="15px">c</text>
	<text transform="matrix(1 0 0 1 -431.4453 105.6499)" font-family="'MyriadPro-Regular'" font-size="15px">l</text>
	<text transform="matrix(1 0 0 1 -427.9053 105.6499)" font-family="'MyriadPro-Regular'" font-size="15px">u</text>
	<text transform="matrix(1 0 0 1 -419.6401 105.6499)" font-family="'MyriadPro-Regular'" font-size="15px">d</text>
	<text transform="matrix(1 0 0 1 -411.1802 105.6499)" font-family="'MyriadPro-Regular'" font-size="15px">e</text>
	<text transform="matrix(1 0 0 1 -403.6655 105.6499)" font-family="'MyriadPro-Regular'" font-size="15px">_</text>
	<text transform="matrix(1 0 0 1 -396.1655 105.6499)" font-family="'MyriadPro-Regular'" font-size="15px">r</text>
	<text transform="matrix(1 0 0 1 -391.4106 105.6499)" font-family="'MyriadPro-Regular'" font-size="15px">e</text>
	<text transform="matrix(1 0 0 1 -383.896 105.6499)" font-family="'MyriadPro-Regular'" font-size="15px">s</text>
	<text transform="matrix(1 0 0 1 -377.9561 105.6499)" font-family="'MyriadPro-Regular'" font-size="15px">i</text>
	<text transform="matrix(1 0 0 1 -374.4463 105.6499)" font-family="'MyriadPro-Regular'" font-size="15px">z</text>
	<text transform="matrix(1 0 0 1 -368.1313 105.6499)" font-family="'MyriadPro-Regular'" font-size="15px">e</text>
	<text transform="matrix(1 0 0 1 -360.6167 105.6499)" font-family="'MyriadPro-Regular'" font-size="15px">r</text>
	<text transform="matrix(1 0 0 1 -355.7119 105.6499)" font-family="'MyriadPro-Regular'" font-size="15px">_</text>
	<text transform="matrix(1 0 0 1 -348.2119 105.6499)" font-family="'MyriadPro-Regular'" font-size="15px">s</text>
	<text transform="matrix(1 0 0 1 -342.272 105.6499)" font-family="'MyriadPro-Regular'" font-size="15px">c</text>
	<text transform="matrix(1 0 0 1 -335.5518 105.6499)" font-family="'MyriadPro-Regular'" font-size="15px">r</text>
	<text transform="matrix(1 0 0 1 -330.5869 105.6499)" font-family="'MyriadPro-Regular'" font-size="15px">i</text>
	<text transform="matrix(1 0 0 1 -327.0771 105.6499)" font-family="'MyriadPro-Regular'" font-size="15px">p</text>
	<text transform="matrix(1 0 0 1 -318.5425 105.6499)" font-family="'MyriadPro-Regular'" font-size="15px">t</text>
	<text transform="matrix(1 0 0 1 -313.5776 105.6499)" font-family="'MyriadPro-Regular'" font-size="15px">:</text>
	<text transform="matrix(1 0 0 1 -310.4727 105.6499)" font-family="'MyriadPro-Regular'" font-size="15px"> </text>
	<text transform="matrix(1 0 0 1 -307.293 105.6499)" font-family="'MyriadPro-Regular'" font-size="15px">f</text>
	<text transform="matrix(1 0 0 1 -302.9131 105.6499)" font-family="'MyriadPro-Regular'" font-size="15px">a</text>
	<text transform="matrix(1 0 0 1 -295.6831 105.6499)" font-family="'MyriadPro-Regular'" font-size="15px">l</text>
	<text transform="matrix(1 0 0 1 -292.1431 105.6499)" font-family="'MyriadPro-Regular'" font-size="15px">s</text>
	<text transform="matrix(1 0 0 1 -286.2031 105.6499)" font-family="'MyriadPro-Regular'" font-size="15px">e</text>
	<text transform="matrix(1 0 0 1 -450 124.6499)" font-family="'MyriadPro-Regular'" font-size="15px">u</text>
	<text transform="matrix(1 0 0 1 -441.7349 124.6499)" font-family="'MyriadPro-Regular'" font-size="15px">s</text>
	<text transform="matrix(1 0 0 1 -435.7949 124.6499)" font-family="'MyriadPro-Regular'" font-size="15px">e</text>
	<text transform="matrix(1 0 0 1 -428.2803 124.6499)" font-family="'MyriadPro-Regular'" font-size="15px">_</text>
	<text transform="matrix(1 0 0 1 -420.7803 124.6499)" font-family="'MyriadPro-Regular'" font-size="15px">l</text>
	<text transform="matrix(1 0 0 1 -417.2402 124.6499)" font-family="'MyriadPro-Regular'" font-size="15px">a</text>
	<text transform="matrix(1 0 0 1 -410.0103 124.6499)" font-family="'MyriadPro-Regular'" font-size="15px">z</text>
	<text transform="matrix(1 0 0 1 -403.2305 124.6499)" font-family="'MyriadPro-Regular'" font-size="15px">y</text>
	<text transform="matrix(1 0 0 1 -396.1655 124.6499)" font-family="'MyriadPro-Regular'" font-size="15px">_</text>
	<text transform="matrix(1 0 0 1 -388.6655 124.6499)" font-family="'MyriadPro-Regular'" font-size="15px">l</text>
	<text transform="matrix(1 0 0 1 -385.1255 124.6499)" font-family="'MyriadPro-Regular'" font-size="15px">o</text>
	<text transform="matrix(1 0 0 1 -376.8906 124.6499)" font-family="'MyriadPro-Regular'" font-size="15px">a</text>
	<text transform="matrix(1 0 0 1 -369.6606 124.6499)" font-family="'MyriadPro-Regular'" font-size="15px">d</text>
	<text transform="matrix(1 0 0 1 -361.2007 124.6499)" font-family="'MyriadPro-Regular'" font-size="15px">e</text>
	<text transform="matrix(1 0 0 1 -353.686 124.6499)" font-family="'MyriadPro-Regular'" font-size="15px">r</text>
	<text transform="matrix(1 0 0 1 -348.6465 124.6499)" font-family="'MyriadPro-Regular'" font-size="15px">:</text>
	<text transform="matrix(1 0 0 1 -345.5415 124.6499)" font-family="'MyriadPro-Regular'" font-size="15px"> </text>
	<text transform="matrix(1 0 0 1 -342.3618 124.6499)" font-family="'MyriadPro-Regular'" font-size="15px">f</text>
	<text transform="matrix(1 0 0 1 -337.9819 124.6499)" font-family="'MyriadPro-Regular'" font-size="15px">a</text>
	<text transform="matrix(1 0 0 1 -330.752 124.6499)" font-family="'MyriadPro-Regular'" font-size="15px">l</text>
	<text transform="matrix(1 0 0 1 -327.2119 124.6499)" font-family="'MyriadPro-Regular'" font-size="15px">s</text>
	<text transform="matrix(1 0 0 1 -321.272 124.6499)" font-family="'MyriadPro-Regular'" font-size="15px">e</text>
	<text transform="matrix(1 0 0 1 -450 143.6499)" font-family="'MyriadPro-Regular'" font-size="15px">o</text>
	<text transform="matrix(1 0 0 1 -441.7651 143.6499)" font-family="'MyriadPro-Regular'" font-size="15px">u</text>
	<text transform="matrix(1 0 0 1 -433.5 143.6499)" font-family="'MyriadPro-Regular'" font-size="15px">t</text>
	<text transform="matrix(1 0 0 1 -428.5352 143.6499)" font-family="'MyriadPro-Regular'" font-size="15px">p</text>
	<text transform="matrix(1 0 0 1 -420.0005 143.6499)" font-family="'MyriadPro-Regular'" font-size="15px">u</text>
	<text transform="matrix(1 0 0 1 -411.7354 143.6499)" font-family="'MyriadPro-Regular'" font-size="15px">t</text>
	<text transform="matrix(1 0 0 1 -406.7705 143.6499)" font-family="'MyriadPro-Regular'" font-size="15px">:</text>
	<text transform="matrix(1 0 0 1 -403.6655 143.6499)" font-family="'MyriadPro-Regular'" font-size="15px"> </text>
	<text transform="matrix(1 0 0 1 -400.4858 143.6499)" font-family="'MyriadPro-Regular'" font-size="15px">o</text>
	<text transform="matrix(1 0 0 1 -392.251 143.6499)" font-family="'MyriadPro-Regular'" font-size="15px">n</text>
	<text transform="matrix(1 0 0 1 -383.9263 143.6499)" font-family="'MyriadPro-Regular'" font-size="15px">e</text>
	<text transform="matrix(1 0 0 1 -375.9917 143.6499)" font-family="'MyriadPro-Regular'" font-size="15px">-</text>
	<text transform="matrix(1 0 0 1 -371.3867 143.6499)" font-family="'MyriadPro-Regular'" font-size="15px">f</text>
	<text transform="matrix(1 0 0 1 -363.542 143.6499)" font-family="'MyriadPro-Regular'" font-size="15px">i</text>
	<text transform="matrix(1 0 0 1 -360.002 143.6499)" font-family="'MyriadPro-Regular'" font-size="15px">l</text>
	<text transform="matrix(1 0 0 1 -7747.1968 -7857.9438)" font-family="'MyriadPro-Regular'" font-size="15px">e</text>
	<text transform="matrix(1 0 0 1 -450 162.6499)" font-family="'MyriadPro-Regular'" font-size="15px">h</text>
	<text transform="matrix(1 0 0 1 -441.7354 162.6499)" font-family="'MyriadPro-Regular'" font-size="15px">t</text>
	<text transform="matrix(1 0 0 1 -436.7705 162.6499)" font-family="'MyriadPro-Regular'" font-size="15px">m</text>
	<text transform="matrix(1 0 0 1 -424.2607 162.6499)" font-family="'MyriadPro-Regular'" font-size="15px">l</text>
	<text transform="matrix(1 0 0 1 -420.7207 162.6499)" font-family="'MyriadPro-Regular'" font-size="15px">_</text>
	<text transform="matrix(1 0 0 1 -413.2207 162.6499)" font-family="'MyriadPro-Regular'" font-size="15px">o</text>
	<text transform="matrix(1 0 0 1 -404.9858 162.6499)" font-family="'MyriadPro-Regular'" font-size="15px">u</text>
	<text transform="matrix(1 0 0 1 -396.7207 162.6499)" font-family="'MyriadPro-Regular'" font-size="15px">t</text>
	<text transform="matrix(1 0 0 1 -391.7559 162.6499)" font-family="'MyriadPro-Regular'" font-size="15px">p</text>
	<text transform="matrix(1 0 0 1 -383.2212 162.6499)" font-family="'MyriadPro-Regular'" font-size="15px">u</text>
	<text transform="matrix(1 0 0 1 -374.9561 162.6499)" font-family="'MyriadPro-Regular'" font-size="15px">t</text>
	<text transform="matrix(1 0 0 1 -369.9912 162.6499)" font-family="'MyriadPro-Regular'" font-size="15px">_</text>
	<text transform="matrix(1 0 0 1 -362.4912 162.6499)" font-family="'MyriadPro-Regular'" font-size="15px">p</text>
	<text transform="matrix(1 0 0 1 -353.9565 162.6499)" font-family="'MyriadPro-Regular'" font-size="15px">a</text>
	<text transform="matrix(1 0 0 1 -346.7866 162.6499)" font-family="'MyriadPro-Regular'" font-size="15px">t</text>
	<text transform="matrix(1 0 0 1 -341.8218 162.6499)" font-family="'MyriadPro-Regular'" font-size="15px">h</text>
	<text transform="matrix(1 0 0 1 -333.4971 162.6499)" font-family="'MyriadPro-Regular'" font-size="15px">:</text>
	<text transform="matrix(1 0 0 1 -330.3921 162.6499)" font-family="'MyriadPro-Regular'" font-size="15px"> </text>
	<text transform="matrix(1 0 0 1 -327.2124 162.6499)" font-family="'MyriadPro-Regular'" font-size="15px">a</text>
	<text transform="matrix(1 0 0 1 -319.9824 162.6499)" font-family="'MyriadPro-Regular'" font-size="15px">i</text>
	<text transform="matrix(1 0 0 1 -316.4727 162.6499)" font-family="'MyriadPro-Regular'" font-size="15px">2</text>
	<text transform="matrix(1 0 0 1 -308.7778 162.6499)" font-family="'MyriadPro-Regular'" font-size="15px">h</text>
	<text transform="matrix(1 0 0 1 -300.5127 162.6499)" font-family="'MyriadPro-Regular'" font-size="15px">t</text>
	<text transform="matrix(1 0 0 1 -295.5479 162.6499)" font-family="'MyriadPro-Regular'" font-size="15px">m</text>
	<text transform="matrix(1 0 0 1 -283.0381 162.6499)" font-family="'MyriadPro-Regular'" font-size="15px">l</text>
	<text transform="matrix(1 0 0 1 -279.498 162.6499)" font-family="'MyriadPro-Regular'" font-size="15px">-</text>
	<text transform="matrix(1 0 0 1 -274.6235 162.6499)" font-family="'MyriadPro-Regular'" font-size="15px">o</text>
	<text transform="matrix(1 0 0 1 -266.3887 162.6499)" font-family="'MyriadPro-Regular'" font-size="15px">u</text>
	<text transform="matrix(1 0 0 1 -258.1235 162.6499)" font-family="'MyriadPro-Regular'" font-size="15px">t</text>
	<text transform="matrix(1 0 0 1 -253.1587 162.6499)" font-family="'MyriadPro-Regular'" font-size="15px">p</text>
	<text transform="matrix(1 0 0 1 -244.624 162.6499)" font-family="'MyriadPro-Regular'" font-size="15px">u</text>
	<text transform="matrix(1 0 0 1 -236.3589 162.6499)" font-family="'MyriadPro-Regular'" font-size="15px">t</text>
	<text transform="matrix(1 0 0 1 -231.394 162.6499)" font-family="'MyriadPro-Regular'" font-size="15px">/</text>
	<text transform="matrix(1 0 0 1 -450 181.6499)" font-family="'MyriadPro-Regular'" font-size="15px">i</text>
	<text transform="matrix(1 0 0 1 -446.4902 181.6499)" font-family="'MyriadPro-Regular'" font-size="15px">m</text>
	<text transform="matrix(1 0 0 1 -433.9805 181.6499)" font-family="'MyriadPro-Regular'" font-size="15px">a</text>
	<text transform="matrix(1 0 0 1 -426.7505 181.6499)" font-family="'MyriadPro-Regular'" font-size="15px">g</text>
	<text transform="matrix(1 0 0 1 -418.3657 181.6499)" font-family="'MyriadPro-Regular'" font-size="15px">e</text>
	<text transform="matrix(1 0 0 1 -410.8511 181.6499)" font-family="'MyriadPro-Regular'" font-size="15px">_</text>
	<text transform="matrix(1 0 0 1 -403.3511 181.6499)" font-family="'MyriadPro-Regular'" font-size="15px">o</text>
	<text transform="matrix(1 0 0 1 -395.1162 181.6499)" font-family="'MyriadPro-Regular'" font-size="15px">u</text>
	<text transform="matrix(1 0 0 1 -386.8511 181.6499)" font-family="'MyriadPro-Regular'" font-size="15px">t</text>
	<text transform="matrix(1 0 0 1 -381.8862 181.6499)" font-family="'MyriadPro-Regular'" font-size="15px">p</text>
	<text transform="matrix(1 0 0 1 -373.3516 181.6499)" font-family="'MyriadPro-Regular'" font-size="15px">u</text>
	<text transform="matrix(1 0 0 1 -365.0864 181.6499)" font-family="'MyriadPro-Regular'" font-size="15px">t</text>
	<text transform="matrix(1 0 0 1 -360.1216 181.6499)" font-family="'MyriadPro-Regular'" font-size="15px">_</text>
	<text transform="matrix(1 0 0 1 -352.6216 181.6499)" font-family="'MyriadPro-Regular'" font-size="15px">p</text>
	<text transform="matrix(1 0 0 1 -344.0869 181.6499)" font-family="'MyriadPro-Regular'" font-size="15px">a</text>
	<text transform="matrix(1 0 0 1 -336.917 181.6499)" font-family="'MyriadPro-Regular'" font-size="15px">t</text>
	<text transform="matrix(1 0 0 1 -331.9521 181.6499)" font-family="'MyriadPro-Regular'" font-size="15px">h</text>
	<text transform="matrix(1 0 0 1 -323.6274 181.6499)" font-family="'MyriadPro-Regular'" font-size="15px">:</text>
	<text transform="matrix(1 0 0 1 -320.5225 181.6499)" font-family="'MyriadPro-Regular'" font-size="15px"> </text>
	<text transform="matrix(1 0 0 1 -317.3428 181.6499)" font-family="'MyriadPro-Regular'" font-size="15px">a</text>
	<text transform="matrix(1 0 0 1 -310.1128 181.6499)" font-family="'MyriadPro-Regular'" font-size="15px">i</text>
	<text transform="matrix(1 0 0 1 -306.603 181.6499)" font-family="'MyriadPro-Regular'" font-size="15px">2</text>
	<text transform="matrix(1 0 0 1 -298.9082 181.6499)" font-family="'MyriadPro-Regular'" font-size="15px">h</text>
	<text transform="matrix(1 0 0 1 -290.6436 181.6499)" font-family="'MyriadPro-Regular'" font-size="15px">t</text>
	<text transform="matrix(1 0 0 1 -285.6787 181.6499)" font-family="'MyriadPro-Regular'" font-size="15px">m</text>
	<text transform="matrix(1 0 0 1 -273.1689 181.6499)" font-family="'MyriadPro-Regular'" font-size="15px">l</text>
	<text transform="matrix(1 0 0 1 -269.6289 181.6499)" font-family="'MyriadPro-Regular'" font-size="15px">-</text>
	<text transform="matrix(1 0 0 1 -264.7539 181.6499)" font-family="'MyriadPro-Regular'" font-size="15px">o</text>
	<text transform="matrix(1 0 0 1 -256.519 181.6499)" font-family="'MyriadPro-Regular'" font-size="15px">u</text>
	<text transform="matrix(1 0 0 1 -248.2539 181.6499)" font-family="'MyriadPro-Regular'" font-size="15px">t</text>
	<text transform="matrix(1 0 0 1 -243.2891 181.6499)" font-family="'MyriadPro-Regular'" font-size="15px">p</text>
	<text transform="matrix(1 0 0 1 -234.7544 181.6499)" font-family="'MyriadPro-Regular'" font-size="15px">u</text>
	<text transform="matrix(1 0 0 1 -226.4893 181.6499)" font-family="'MyriadPro-Regular'" font-size="15px">t</text>
	<text transform="matrix(1 0 0 1 -221.5244 181.6499)" font-family="'MyriadPro-Regular'" font-size="15px">/</text>
	<text transform="matrix(1 0 0 1 -450 200.6499)" font-family="'MyriadPro-Regular'" font-size="15px">i</text>
	<text transform="matrix(1 0 0 1 -446.4902 200.6499)" font-family="'MyriadPro-Regular'" font-size="15px">m</text>
	<text transform="matrix(1 0 0 1 -433.9805 200.6499)" font-family="'MyriadPro-Regular'" font-size="15px">a</text>
	<text transform="matrix(1 0 0 1 -426.7505 200.6499)" font-family="'MyriadPro-Regular'" font-size="15px">g</text>
	<text transform="matrix(1 0 0 1 -418.3657 200.6499)" font-family="'MyriadPro-Regular'" font-size="15px">e</text>
	<text transform="matrix(1 0 0 1 -410.8511 200.6499)" font-family="'MyriadPro-Regular'" font-size="15px">_</text>
	<text transform="matrix(1 0 0 1 -403.3511 200.6499)" font-family="'MyriadPro-Regular'" font-size="15px">s</text>
	<text transform="matrix(1 0 0 1 -397.4111 200.6499)" font-family="'MyriadPro-Regular'" font-size="15px">o</text>
	<text transform="matrix(1 0 0 1 -389.1763 200.6499)" font-family="'MyriadPro-Regular'" font-size="15px">u</text>
	<text transform="matrix(1 0 0 1 -380.9111 200.6499)" font-family="'MyriadPro-Regular'" font-size="15px">r</text>
	<text transform="matrix(1 0 0 1 -376.1562 200.6499)" font-family="'MyriadPro-Regular'" font-size="15px">c</text>
	<text transform="matrix(1 0 0 1 -369.5259 200.6499)" font-family="'MyriadPro-Regular'" font-size="15px">e</text>
	<text transform="matrix(1 0 0 1 -362.0112 200.6499)" font-family="'MyriadPro-Regular'" font-size="15px">_</text>
	<text transform="matrix(1 0 0 1 -354.5112 200.6499)" font-family="'MyriadPro-Regular'" font-size="15px">p</text>
	<text transform="matrix(1 0 0 1 -345.9766 200.6499)" font-family="'MyriadPro-Regular'" font-size="15px">a</text>
	<text transform="matrix(1 0 0 1 -338.8066 200.6499)" font-family="'MyriadPro-Regular'" font-size="15px">t</text>
	<text transform="matrix(1 0 0 1 -333.8418 200.6499)" font-family="'MyriadPro-Regular'" font-size="15px">h</text>
	<text transform="matrix(1 0 0 1 -325.5171 200.6499)" font-family="'MyriadPro-Regular'" font-size="15px">:</text>
	<text transform="matrix(1 0 0 1 -322.4121 200.6499)" font-family="'MyriadPro-Regular'" font-size="15px"> </text>
	<text transform="matrix(1 0 0 1 -450 219.6499)" font-family="'MyriadPro-Regular'" font-size="15px">l</text>
	<text transform="matrix(1 0 0 1 -446.46 219.6499)" font-family="'MyriadPro-Regular'" font-size="15px">o</text>
	<text transform="matrix(1 0 0 1 -438.2251 219.6499)" font-family="'MyriadPro-Regular'" font-size="15px">c</text>
	<text transform="matrix(1 0 0 1 -431.5049 219.6499)" font-family="'MyriadPro-Regular'" font-size="15px">a</text>
	<text transform="matrix(1 0 0 1 -424.2749 219.6499)" font-family="'MyriadPro-Regular'" font-size="15px">l</text>
	<text transform="matrix(1 0 0 1 -420.7349 219.6499)" font-family="'MyriadPro-Regular'" font-size="15px">_</text>
	<text transform="matrix(1 0 0 1 -413.2349 219.6499)" font-family="'MyriadPro-Regular'" font-size="15px">p</text>
	<text transform="matrix(1 0 0 1 -404.7002 219.6499)" font-family="'MyriadPro-Regular'" font-size="15px">r</text>
	<text transform="matrix(1 0 0 1 -399.9453 219.6499)" font-family="'MyriadPro-Regular'" font-size="15px">e</text>
	<text transform="matrix(1 0 0 1 -392.4307 219.6499)" font-family="'MyriadPro-Regular'" font-size="15px">v</text>
	<text transform="matrix(1 0 0 1 -385.2158 219.6499)" font-family="'MyriadPro-Regular'" font-size="15px">i</text>
	<text transform="matrix(1 0 0 1 -381.7061 219.6499)" font-family="'MyriadPro-Regular'" font-size="15px">e</text>
	<text transform="matrix(1 0 0 1 -374.1914 219.6499)" font-family="'MyriadPro-Regular'" font-size="15px">w</text>
	<text transform="matrix(1 0 0 1 -363.1514 219.6499)" font-family="'MyriadPro-Regular'" font-size="15px">_</text>
	<text transform="matrix(1 0 0 1 -355.6514 219.6499)" font-family="'MyriadPro-Regular'" font-size="15px">t</text>
	<text transform="matrix(1 0 0 1 -350.7764 219.6499)" font-family="'MyriadPro-Regular'" font-size="15px">e</text>
	<text transform="matrix(1 0 0 1 -343.2617 219.6499)" font-family="'MyriadPro-Regular'" font-size="15px">m</text>
	<text transform="matrix(1 0 0 1 -330.752 219.6499)" font-family="'MyriadPro-Regular'" font-size="15px">p</text>
	<text transform="matrix(1 0 0 1 -322.2173 219.6499)" font-family="'MyriadPro-Regular'" font-size="15px">l</text>
	<text transform="matrix(1 0 0 1 -318.6772 219.6499)" font-family="'MyriadPro-Regular'" font-size="15px">a</text>
	<text transform="matrix(1 0 0 1 -311.5073 219.6499)" font-family="'MyriadPro-Regular'" font-size="15px">t</text>
	<text transform="matrix(1 0 0 1 -306.6323 219.6499)" font-family="'MyriadPro-Regular'" font-size="15px">e</text>
	<text transform="matrix(1 0 0 1 -299.1177 219.6499)" font-family="'MyriadPro-Regular'" font-size="15px">:</text>
	<text transform="matrix(1 0 0 1 -296.0127 219.6499)" font-family="'MyriadPro-Regular'" font-size="15px"> </text>
	<text transform="matrix(1 0 0 1 -450 238.6499)" font-family="'MyriadPro-Regular'" font-size="15px">p</text>
	<text transform="matrix(1 0 0 1 -441.4653 238.6499)" font-family="'MyriadPro-Regular'" font-size="15px">n</text>
	<text transform="matrix(1 0 0 1 -433.1406 238.6499)" font-family="'MyriadPro-Regular'" font-size="15px">g</text>
	<text transform="matrix(1 0 0 1 -424.7559 238.6499)" font-family="'MyriadPro-Regular'" font-size="15px">_</text>
	<text transform="matrix(1 0 0 1 -417.2559 238.6499)" font-family="'MyriadPro-Regular'" font-size="15px">n</text>
	<text transform="matrix(1 0 0 1 -408.9312 238.6499)" font-family="'MyriadPro-Regular'" font-size="15px">u</text>
	<text transform="matrix(1 0 0 1 -400.666 238.6499)" font-family="'MyriadPro-Regular'" font-size="15px">m</text>
	<text transform="matrix(1 0 0 1 -388.1562 238.6499)" font-family="'MyriadPro-Regular'" font-size="15px">b</text>
	<text transform="matrix(1 0 0 1 -379.6216 238.6499)" font-family="'MyriadPro-Regular'" font-size="15px">e</text>
	<text transform="matrix(1 0 0 1 -372.1069 238.6499)" font-family="'MyriadPro-Regular'" font-size="15px">r</text>
	<text transform="matrix(1 0 0 1 -367.2021 238.6499)" font-family="'MyriadPro-Regular'" font-size="15px">_</text>
	<text transform="matrix(1 0 0 1 -359.7021 238.6499)" font-family="'MyriadPro-Regular'" font-size="15px">o</text>
	<text transform="matrix(1 0 0 1 -351.4673 238.6499)" font-family="'MyriadPro-Regular'" font-size="15px">f</text>
	<text transform="matrix(1 0 0 1 -347.0874 238.6499)" font-family="'MyriadPro-Regular'" font-size="15px">_</text>
	<text transform="matrix(1 0 0 1 -339.5874 238.6499)" font-family="'MyriadPro-Regular'" font-size="15px">c</text>
	<text transform="matrix(1 0 0 1 -332.957 238.6499)" font-family="'MyriadPro-Regular'" font-size="15px">o</text>
	<text transform="matrix(1 0 0 1 -324.7222 238.6499)" font-family="'MyriadPro-Regular'" font-size="15px">l</text>
	<text transform="matrix(1 0 0 1 -321.1821 238.6499)" font-family="'MyriadPro-Regular'" font-size="15px">o</text>
	<text transform="matrix(1 0 0 1 -312.9473 238.6499)" font-family="'MyriadPro-Regular'" font-size="15px">r</text>
	<text transform="matrix(1 0 0 1 -308.0425 238.6499)" font-family="'MyriadPro-Regular'" font-size="15px">s</text>
	<text transform="matrix(1 0 0 1 -302.1025 238.6499)" font-family="'MyriadPro-Regular'" font-size="15px">:</text>
	<text transform="matrix(1 0 0 1 -298.9976 238.6499)" font-family="'MyriadPro-Regular'" font-size="15px"> </text>
	<text transform="matrix(1 0 0 1 -295.8179 238.6499)" font-family="'MyriadPro-Regular'" font-size="15px">1</text>
	<text transform="matrix(1 0 0 1 -288.123 238.6499)" font-family="'MyriadPro-Regular'" font-size="15px">2</text>
	<text transform="matrix(1 0 0 1 -280.4282 238.6499)" font-family="'MyriadPro-Regular'" font-size="15px">8</text>
	<text transform="matrix(1 0 0 1 -450 257.6499)" font-family="'MyriadPro-Regular'" font-size="15px">j</text>
	<text transform="matrix(1 0 0 1 -446.355 257.6499)" font-family="'MyriadPro-Regular'" font-size="15px">p</text>
	<text transform="matrix(1 0 0 1 -437.8203 257.6499)" font-family="'MyriadPro-Regular'" font-size="15px">g</text>
	<text transform="matrix(1 0 0 1 -429.4355 257.6499)" font-family="'MyriadPro-Regular'" font-size="15px">_</text>
	<text transform="matrix(1 0 0 1 -421.9355 257.6499)" font-family="'MyriadPro-Regular'" font-size="15px">q</text>
	<text transform="matrix(1 0 0 1 -413.4907 257.6499)" font-family="'MyriadPro-Regular'" font-size="15px">u</text>
	<text transform="matrix(1 0 0 1 -405.2256 257.6499)" font-family="'MyriadPro-Regular'" font-size="15px">a</text>
	<text transform="matrix(1 0 0 1 -397.9956 257.6499)" font-family="'MyriadPro-Regular'" font-size="15px">l</text>
	<text transform="matrix(1 0 0 1 -394.4556 257.6499)" font-family="'MyriadPro-Regular'" font-size="15px">i</text>
	<text transform="matrix(1 0 0 1 -390.9458 257.6499)" font-family="'MyriadPro-Regular'" font-size="15px">t</text>
	<text transform="matrix(1 0 0 1 -385.8462 257.6499)" font-family="'MyriadPro-Regular'" font-size="15px">y</text>
	<text transform="matrix(1 0 0 1 -378.4214 257.6499)" font-family="'MyriadPro-Regular'" font-size="15px">:</text>
	<text transform="matrix(1 0 0 1 -375.3164 257.6499)" font-family="'MyriadPro-Regular'" font-size="15px"> </text>
	<text transform="matrix(1 0 0 1 -372.1367 257.6499)" font-family="'MyriadPro-Regular'" font-size="15px">6</text>
	<text transform="matrix(1 0 0 1 -364.4419 257.6499)" font-family="'MyriadPro-Regular'" font-size="15px">0</text>
	<text transform="matrix(1 0 0 1 -450 276.6499)" font-family="'MyriadPro-Regular'" font-size="15px">h</text>
	<text transform="matrix(1 0 0 1 -441.6753 276.6499)" font-family="'MyriadPro-Regular'" font-size="15px">e</text>
	<text transform="matrix(1 0 0 1 -434.1606 276.6499)" font-family="'MyriadPro-Regular'" font-size="15px">a</text>
	<text transform="matrix(1 0 0 1 -426.9307 276.6499)" font-family="'MyriadPro-Regular'" font-size="15px">d</text>
	<text transform="matrix(1 0 0 1 -418.4707 276.6499)" font-family="'MyriadPro-Regular'" font-size="15px">l</text>
	<text transform="matrix(1 0 0 1 -414.9307 276.6499)" font-family="'MyriadPro-Regular'" font-size="15px">i</text>
	<text transform="matrix(1 0 0 1 -411.4209 276.6499)" font-family="'MyriadPro-Regular'" font-size="15px">n</text>
	<text transform="matrix(1 0 0 1 -403.0962 276.6499)" font-family="'MyriadPro-Regular'" font-size="15px">e</text>
	<text transform="matrix(1 0 0 1 -395.5815 276.6499)" font-family="'MyriadPro-Regular'" font-size="15px">:</text>
	<text transform="matrix(1 0 0 1 -392.4766 276.6499)" font-family="'MyriadPro-Regular'" font-size="15px"> </text>
	<text transform="matrix(1 0 0 1 -450 295.6494)" font-family="'MyriadPro-Regular'" font-size="15px">l</text>
	<text transform="matrix(1 0 0 1 -446.46 295.6494)" font-family="'MyriadPro-Regular'" font-size="15px">e</text>
	<text transform="matrix(1 0 0 1 -438.9453 295.6494)" font-family="'MyriadPro-Regular'" font-size="15px">a</text>
	<text transform="matrix(1 0 0 1 -431.7153 295.6494)" font-family="'MyriadPro-Regular'" font-size="15px">d</text>
	<text transform="matrix(1 0 0 1 -423.2554 295.6494)" font-family="'MyriadPro-Regular'" font-size="15px">i</text>
	<text transform="matrix(1 0 0 1 -419.7456 295.6494)" font-family="'MyriadPro-Regular'" font-size="15px">n</text>
	<text transform="matrix(1 0 0 1 -411.4209 295.6494)" font-family="'MyriadPro-Regular'" font-size="15px">:</text>
	<text transform="matrix(1 0 0 1 -408.3159 295.6494)" font-family="'MyriadPro-Regular'" font-size="15px"> </text>
	<text transform="matrix(1 0 0 1 -450 314.6494)" font-family="'MyriadPro-Regular'" font-size="15px">n</text>
	<text transform="matrix(1 0 0 1 -441.6753 314.6494)" font-family="'MyriadPro-Regular'" font-size="15px">o</text>
	<text transform="matrix(1 0 0 1 -433.4404 314.6494)" font-family="'MyriadPro-Regular'" font-size="15px">t</text>
	<text transform="matrix(1 0 0 1 -428.5654 314.6494)" font-family="'MyriadPro-Regular'" font-size="15px">e</text>
	<text transform="matrix(1 0 0 1 -421.0508 314.6494)" font-family="'MyriadPro-Regular'" font-size="15px">s</text>
	<text transform="matrix(1 0 0 1 -415.1108 314.6494)" font-family="'MyriadPro-Regular'" font-size="15px">:</text>
	<text transform="matrix(1 0 0 1 -412.0059 314.6494)" font-family="'MyriadPro-Regular'" font-size="15px"> </text>
	<text transform="matrix(1 0 0 1 -450 333.6494)" font-family="'MyriadPro-Regular'" font-size="15px">s</text>
	<text transform="matrix(1 0 0 1 -444.0601 333.6494)" font-family="'MyriadPro-Regular'" font-size="15px">o</text>
	<text transform="matrix(1 0 0 1 -435.8252 333.6494)" font-family="'MyriadPro-Regular'" font-size="15px">u</text>
	<text transform="matrix(1 0 0 1 -427.5601 333.6494)" font-family="'MyriadPro-Regular'" font-size="15px">r</text>
	<text transform="matrix(1 0 0 1 -422.8052 333.6494)" font-family="'MyriadPro-Regular'" font-size="15px">c</text>
	<text transform="matrix(1 0 0 1 -416.1753 333.6494)" font-family="'MyriadPro-Regular'" font-size="15px">e</text>
	<text transform="matrix(1 0 0 1 -408.6606 333.6494)" font-family="'MyriadPro-Regular'" font-size="15px">s</text>
	<text transform="matrix(1 0 0 1 -402.7207 333.6494)" font-family="'MyriadPro-Regular'" font-size="15px">:</text>
	<text transform="matrix(1 0 0 1 -399.6157 333.6494)" font-family="'MyriadPro-Regular'" font-size="15px"> </text>
	<text transform="matrix(1 0 0 1 -450 352.6494)" font-family="'MyriadPro-Regular'" font-size="15px">c</text>
	<text transform="matrix(1 0 0 1 -443.2803 352.6494)" font-family="'MyriadPro-Regular'" font-size="15px">r</text>
	<text transform="matrix(1 0 0 1 -438.5254 352.6494)" font-family="'MyriadPro-Regular'" font-size="15px">e</text>
	<text transform="matrix(1 0 0 1 -431.0107 352.6494)" font-family="'MyriadPro-Regular'" font-size="15px">d</text>
	<text transform="matrix(1 0 0 1 -422.5508 352.6494)" font-family="'MyriadPro-Regular'" font-size="15px">i</text>
	<text transform="matrix(1 0 0 1 -419.041 352.6494)" font-family="'MyriadPro-Regular'" font-size="15px">t</text>
	<text transform="matrix(1 0 0 1 -414.0762 352.6494)" font-family="'MyriadPro-Regular'" font-size="15px">:</text>
	<text transform="matrix(1 0 0 1 -410.9712 352.6494)" font-family="'MyriadPro-Regular'" font-size="15px"> </text>
</g>
</svg>
