<?xml version="1.0" encoding="utf-8"?>
<!-- Generator: Adobe Illustrator 27.7.0, SVG Export Plug-In . SVG Version: 6.00 Build 0)  -->
<svg version="1.2" baseProfile="tiny" id="g-subway-map_svg-Artboard_1-interactions-img" xmlns="http://www.w3.org/2000/svg" xmlns:xlink="http://www.w3.org/1999/xlink"
	 x="0px" y="0px" viewBox="0 0 887 1080" overflow="visible" xml:space="preserve">
<g>
	<rect id="grey" style="opacity:0.54;" x="0" y="0" fill="#999999" width="887" height="1080"/>
	<path id="_x34_th_x26_9th1_00000035503895193802931170000001534191726580047530_" fill="#C71E1D" d="M419.575,790.574
		c-8.004,0-14.5,6.272-14.5,14s6.496,14,14.5,14c8.004,0,14.5-6.272,14.5-14S427.579,790.574,419.575,790.574z M419.575,793.066
		c6.612,0,11.919,5.124,11.919,11.508s-5.307,11.508-11.919,11.508s-11.919-5.124-11.919-11.508S412.963,793.066,419.575,793.066z
		 M428.333,804.574c0,4.67-3.921,8.456-8.758,8.456c-4.837,0-8.758-3.786-8.758-8.456s3.921-8.456,8.758-8.456
		C424.412,796.118,428.333,799.904,428.333,804.574z"/>
	<path id="_x34_th_x26_9th2_00000176005645847597521620000003644684303519910830_" fill="#0079FF" d="M413.649,795.373L428.445,821
		h-29.592L413.649,795.373z"/>
	<path id="_x34_th_x26_9th3_00000171707217458178183390000002878643709285464750_" fill="#0079FF" d="M410.649,783.373L425.445,809
		h-29.592L410.649,783.373z"/>
	<path id="will1_00000001649207407932490400000002199988133264278701_" fill="#C71E1D" d="M282.812,640.297
		c-8.004,0-14.5,6.272-14.5,14c0,7.728,6.496,14,14.5,14s14.5-6.272,14.5-14C297.312,646.569,290.816,640.297,282.812,640.297z
		 M282.812,642.789c6.612,0,11.919,5.124,11.919,11.508c0,6.384-5.307,11.508-11.919,11.508s-11.919-5.124-11.919-11.508
		C270.893,647.913,276.2,642.789,282.812,642.789z M291.57,654.297c0,4.67-3.921,8.456-8.758,8.456s-8.758-3.786-8.758-8.456
		c0-4.67,3.921-8.456,8.758-8.456S291.57,649.627,291.57,654.297z"/>
	<path id="will2_00000145019243955731790670000008015615644858330021_" fill="#C71E1D" d="M291.249,651.394
		c-8.004,0-14.5,6.272-14.5,14c0,7.728,6.496,14,14.5,14s14.5-6.272,14.5-14C305.749,657.666,299.253,651.394,291.249,651.394z
		 M291.249,653.886c6.612,0,11.919,5.124,11.919,11.508c0,6.384-5.307,11.508-11.919,11.508s-11.919-5.124-11.919-11.508
		C279.33,659.01,284.637,653.886,291.249,653.886z M300.007,665.394c0,4.67-3.921,8.456-8.758,8.456s-8.758-3.786-8.758-8.456
		c0-4.67,3.921-8.456,8.758-8.456S300.007,660.724,300.007,665.394z"/>
	<path id="will3_00000043430489615772735660000014875028335211937462_" fill="#C71E1D" d="M276.812,654.297
		c-8.004,0-14.5,6.272-14.5,14c0,7.728,6.496,14,14.5,14s14.5-6.272,14.5-14C291.312,660.569,284.816,654.297,276.812,654.297z
		 M276.812,656.789c6.612,0,11.919,5.124,11.919,11.508c0,6.384-5.307,11.508-11.919,11.508s-11.919-5.124-11.919-11.508
		C264.893,661.913,270.2,656.789,276.812,656.789z M285.57,668.297c0,4.67-3.921,8.456-8.758,8.456s-8.758-3.786-8.758-8.456
		c0-4.67,3.921-8.456,8.758-8.456S285.57,663.627,285.57,668.297z"/>
</g>
<style>
#g-subway-map_svg-Artboard_1-interactions-img rect, #g-subway-map_svg-Artboard_1-interactions-img circle, #g-subway-map_svg-Artboard_1-interactions-img path, #g-subway-map_svg-Artboard_1-interactions-img line, #g-subway-map_svg-Artboard_1-interactions-img polyline, #g-subway-map_svg-Artboard_1-interactions-img polygon { vector-effect: non-scaling-stroke; }
</style>
</svg>

